<svg width="20" height="20" viewBox="0 0 20 20" fill="none" xmlns="http://www.w3.org/2000/svg">
<g id="SVG">
<path id="Vector" d="M7.5 2.5H3.33333C2.8731 2.5 2.5 2.8731 2.5 3.33333V7.5C2.5 7.96024 2.8731 8.33333 3.33333 8.33333H7.5C7.96024 8.33333 8.33333 7.96024 8.33333 7.5V3.33333C8.33333 2.8731 7.96024 2.5 7.5 2.5Z" stroke="#7F62F4" stroke-width="1.66667" stroke-linecap="round" stroke-linejoin="round"/>
<path id="Vector_2" d="M16.6665 2.5H12.4998C12.0396 2.5 11.6665 2.8731 11.6665 3.33333V7.5C11.6665 7.96024 12.0396 8.33333 12.4998 8.33333H16.6665C17.1267 8.33333 17.4998 7.96024 17.4998 7.5V3.33333C17.4998 2.8731 17.1267 2.5 16.6665 2.5Z" stroke="#7F62F4" stroke-width="1.66667" stroke-linecap="round" stroke-linejoin="round"/>
<path id="Vector_3" d="M16.6665 11.6667H12.4998C12.0396 11.6667 11.6665 12.0398 11.6665 12.5001V16.6667C11.6665 17.127 12.0396 17.5001 12.4998 17.5001H16.6665C17.1267 17.5001 17.4998 17.127 17.4998 16.6667V12.5001C17.4998 12.0398 17.1267 11.6667 16.6665 11.6667Z" stroke="#7F62F4" stroke-width="1.66667" stroke-linecap="round" stroke-linejoin="round"/>
<path id="Vector_4" d="M7.5 11.6667H3.33333C2.8731 11.6667 2.5 12.0398 2.5 12.5001V16.6667C2.5 17.127 2.8731 17.5001 3.33333 17.5001H7.5C7.96024 17.5001 8.33333 17.127 8.33333 16.6667V12.5001C8.33333 12.0398 7.96024 11.6667 7.5 11.6667Z" stroke="#7F62F4" stroke-width="1.66667" stroke-linecap="round" stroke-linejoin="round"/>
</g>
</svg>
