<svg width="20" height="20" viewBox="0 0 20 20" fill="none" xmlns="http://www.w3.org/2000/svg">
<g id="SVG">
<path id="Vector" d="M11.2502 5.83333C11.4803 5.83333 11.6668 5.64679 11.6668 5.41667C11.6668 5.18655 11.4803 5 11.2502 5C11.02 5 10.8335 5.18655 10.8335 5.41667C10.8335 5.64679 11.02 5.83333 11.2502 5.83333Z" fill="#7F62F4" stroke="#7F62F4" stroke-width="1.66667" stroke-linecap="round" stroke-linejoin="round"/>
<path id="Vector_2" d="M14.5832 9.16659C14.8133 9.16659 14.9998 8.98004 14.9998 8.74992C14.9998 8.5198 14.8133 8.33325 14.5832 8.33325C14.3531 8.33325 14.1665 8.5198 14.1665 8.74992C14.1665 8.98004 14.3531 9.16659 14.5832 9.16659Z" fill="#7F62F4" stroke="#7F62F4" stroke-width="1.66667" stroke-linecap="round" stroke-linejoin="round"/>
<path id="Vector_3" d="M7.08317 6.66659C7.31329 6.66659 7.49984 6.48004 7.49984 6.24992C7.49984 6.0198 7.31329 5.83325 7.08317 5.83325C6.85305 5.83325 6.6665 6.0198 6.6665 6.24992C6.6665 6.48004 6.85305 6.66659 7.08317 6.66659Z" fill="#7F62F4" stroke="#7F62F4" stroke-width="1.66667" stroke-linecap="round" stroke-linejoin="round"/>
<path id="Vector_4" d="M5.41667 10.8333C5.64679 10.8333 5.83333 10.6468 5.83333 10.4167C5.83333 10.1865 5.64679 10 5.41667 10C5.18655 10 5 10.1865 5 10.4167C5 10.6468 5.18655 10.8333 5.41667 10.8333Z" fill="#7F62F4" stroke="#7F62F4" stroke-width="1.66667" stroke-linecap="round" stroke-linejoin="round"/>
<path id="Vector_5" d="M9.99984 1.66675C5.4165 1.66675 1.6665 5.41675 1.6665 10.0001C1.6665 14.5834 5.4165 18.3334 9.99984 18.3334C10.7715 18.3334 11.3732 17.7117 11.3732 16.9267C11.3732 16.5626 11.2232 16.2309 11.009 15.9892C10.7673 15.7484 10.644 15.4459 10.644 15.0517C10.6408 14.8683 10.6746 14.6862 10.7434 14.5161C10.8121 14.346 10.9144 14.1915 11.0441 14.0618C11.1738 13.9321 11.3283 13.8299 11.4984 13.7611C11.6684 13.6924 11.8506 13.6586 12.034 13.6617H13.6973C16.2398 13.6617 18.3265 11.5759 18.3265 9.03341C18.304 5.01008 14.5507 1.66675 9.99984 1.66675Z" stroke="#7F62F4" stroke-width="1.66667" stroke-linecap="round" stroke-linejoin="round"/>
</g>
</svg>
